<mxfile host="app.diagrams.net" agent="Mozilla/5.0 (Windows NT 10.0; Win64; x64) AppleWebKit/537.36 (KHTML, like Gecko) Chrome/135.0.0.0 Safari/537.36" version="26.3.0">
  <diagram name="Page-1" id="2EP10-b367_yMC-MVEcA">
    <mxGraphModel dx="632" dy="348" grid="1" gridSize="10" guides="1" tooltips="1" connect="1" arrows="1" fold="1" page="1" pageScale="1" pageWidth="1169" pageHeight="1654" math="0" shadow="0">
      <root>
        <mxCell id="0" />
        <mxCell id="1" parent="0" />
        <mxCell id="vJWTNUao4MLdjXiqX9mh-2" value="" style="rounded=0;whiteSpace=wrap;html=1;fontFamily=modern;fontSource=https%3A%2F%2Fsourceforge.net%2Fprojects%2Fcm-unicode%2F;" vertex="1" parent="1">
          <mxGeometry x="280" y="280" width="170" height="100" as="geometry" />
        </mxCell>
        <mxCell id="vJWTNUao4MLdjXiqX9mh-3" value="USRP x410" style="text;html=1;align=center;verticalAlign=middle;whiteSpace=wrap;rounded=0;fontFamily=modern;fontSource=https%3A%2F%2Fsourceforge.net%2Fprojects%2Fcm-unicode%2F;" vertex="1" parent="1">
          <mxGeometry x="310" y="280" width="110" height="30" as="geometry" />
        </mxCell>
        <mxCell id="vJWTNUao4MLdjXiqX9mh-5" value="" style="ellipse;whiteSpace=wrap;html=1;aspect=fixed;fontFamily=modern;fontSource=https%3A%2F%2Fsourceforge.net%2Fprojects%2Fcm-unicode%2F;" vertex="1" parent="1">
          <mxGeometry x="390" y="330" width="40" height="40" as="geometry" />
        </mxCell>
        <mxCell id="vJWTNUao4MLdjXiqX9mh-7" value="Rx" style="text;html=1;align=center;verticalAlign=middle;whiteSpace=wrap;rounded=0;fontFamily=modern;fontSource=https%3A%2F%2Fsourceforge.net%2Fprojects%2Fcm-unicode%2F;" vertex="1" parent="1">
          <mxGeometry x="380" y="310" width="60" height="30" as="geometry" />
        </mxCell>
        <mxCell id="vJWTNUao4MLdjXiqX9mh-9" value="" style="verticalLabelPosition=bottom;shadow=0;dashed=0;align=center;html=1;verticalAlign=top;shape=mxgraph.electrical.radio.aerial_-_antenna_2;fontFamily=modern;fontSource=https%3A%2F%2Fsourceforge.net%2Fprojects%2Fcm-unicode%2F;" vertex="1" parent="1">
          <mxGeometry x="490" y="270" width="20" height="60" as="geometry" />
        </mxCell>
        <mxCell id="vJWTNUao4MLdjXiqX9mh-10" style="edgeStyle=orthogonalEdgeStyle;rounded=0;orthogonalLoop=1;jettySize=auto;html=1;exitX=1;exitY=0.5;exitDx=0;exitDy=0;entryX=0.5;entryY=1;entryDx=0;entryDy=0;entryPerimeter=0;endArrow=none;startFill=0;fontFamily=modern;fontSource=https%3A%2F%2Fsourceforge.net%2Fprojects%2Fcm-unicode%2F;" edge="1" parent="1" source="vJWTNUao4MLdjXiqX9mh-5" target="vJWTNUao4MLdjXiqX9mh-9">
          <mxGeometry relative="1" as="geometry" />
        </mxCell>
        <mxCell id="vJWTNUao4MLdjXiqX9mh-11" value="" style="verticalLabelPosition=bottom;shadow=0;dashed=0;align=center;html=1;verticalAlign=top;shape=mxgraph.electrical.radio.aerial_-_antenna_2;fontFamily=modern;fontSource=https%3A%2F%2Fsourceforge.net%2Fprojects%2Fcm-unicode%2F;" vertex="1" parent="1">
          <mxGeometry x="565" y="270" width="20" height="60" as="geometry" />
        </mxCell>
        <mxCell id="vJWTNUao4MLdjXiqX9mh-15" value="Signal generator" style="rounded=0;whiteSpace=wrap;html=1;fontFamily=modern;fontSource=https%3A%2F%2Fsourceforge.net%2Fprojects%2Fcm-unicode%2F;" vertex="1" parent="1">
          <mxGeometry x="620" y="320" width="120" height="60" as="geometry" />
        </mxCell>
        <mxCell id="vJWTNUao4MLdjXiqX9mh-16" style="edgeStyle=orthogonalEdgeStyle;rounded=0;orthogonalLoop=1;jettySize=auto;html=1;exitX=0;exitY=0.5;exitDx=0;exitDy=0;entryX=0.5;entryY=1;entryDx=0;entryDy=0;entryPerimeter=0;endArrow=none;startFill=0;fontFamily=modern;fontSource=https%3A%2F%2Fsourceforge.net%2Fprojects%2Fcm-unicode%2F;" edge="1" parent="1" source="vJWTNUao4MLdjXiqX9mh-15" target="vJWTNUao4MLdjXiqX9mh-11">
          <mxGeometry relative="1" as="geometry" />
        </mxCell>
        <mxCell id="vJWTNUao4MLdjXiqX9mh-17" value="External known antenna" style="text;html=1;align=center;verticalAlign=middle;whiteSpace=wrap;rounded=0;fontFamily=modern;fontSource=https%3A%2F%2Fsourceforge.net%2Fprojects%2Fcm-unicode%2F;" vertex="1" parent="1">
          <mxGeometry x="590" y="270" width="90" height="30" as="geometry" />
        </mxCell>
        <mxCell id="vJWTNUao4MLdjXiqX9mh-18" value="" style="shape=mxgraph.arrows2.wedgeArrowDashed2;html=1;bendable=0;startWidth=15.151515151515156;stepSize=15;rounded=0;fontFamily=modern;fontSource=https%3A%2F%2Fsourceforge.net%2Fprojects%2Fcm-unicode%2F;" edge="1" parent="1">
          <mxGeometry width="100" height="100" relative="1" as="geometry">
            <mxPoint x="525" y="273" as="sourcePoint" />
            <mxPoint x="575" y="273" as="targetPoint" />
          </mxGeometry>
        </mxCell>
      </root>
    </mxGraphModel>
  </diagram>
</mxfile>
